<?xml version="1.0" standalone="no"?>
<!DOCTYPE svg PUBLIC "-//W3C//DTD SVG 20010904//EN"
 "http://www.w3.org/TR/2001/REC-SVG-20010904/DTD/svg10.dtd">
<svg version="1.0" xmlns="http://www.w3.org/2000/svg"
 width="960.000000pt" height="960.000000pt" viewBox="0 0 960.000000 960.000000"
 preserveAspectRatio="xMidYMid meet">
<metadata>
Created by potrace 1.11, written by Peter Selinger 2001-2013
</metadata>
<g transform="translate(0.000000,960.000000) scale(0.100000,-0.100000)"
fill="#000000" stroke="none">
<path d="M7545 8902 c-51 -11 -97 -71 -111 -147 -2 -11 -8 -40 -14 -65 -15
-69 -20 -99 -26 -170 -3 -36 -7 -78 -9 -95 -7 -48 -17 -308 -19 -475 l-1 -154
-40 -7 c-22 -4 -67 -10 -100 -13 -33 -4 -71 -9 -85 -11 -14 -3 -45 -7 -70 -9
-25 -3 -61 -7 -80 -11 -181 -30 -187 -31 -245 -45 -94 -21 -212 -74 -283 -127
-78 -59 -77 -151 4 -223 89 -78 179 -91 374 -55 37 7 79 13 135 21 28 3 59 8
69 10 11 2 56 8 100 14 45 6 92 13 106 15 132 19 130 19 131 -12 0 -15 2 -35
3 -43 2 -8 6 -51 10 -95 10 -112 17 -162 52 -384 22 -135 41 -194 85 -257 38
-55 95 -85 174 -91 130 -9 160 48 141 277 -3 47 -8 96 -10 110 -3 14 -7 57
-10 95 -4 39 -8 93 -11 120 -5 51 -9 103 -21 257 -7 99 -12 93 81 103 33 3 74
7 90 9 30 4 103 11 218 22 34 3 78 7 97 9 19 2 73 6 120 10 110 8 176 27 235
67 80 55 105 133 67 208 -23 46 -66 69 -148 79 -68 8 -502 6 -681 -3 -66 -4
-92 -2 -96 7 -6 16 -1 631 6 682 17 128 18 214 3 243 -19 38 -84 106 -115 122
-25 13 -90 19 -126 12z"/>
<path d="M4740 8175 c-53 -17 -76 -28 -152 -72 -43 -26 -61 -31 -80 -25 -32
12 -105 4 -142 -15 -63 -32 -109 -101 -296 -443 -101 -185 -367 -711 -449
-890 -64 -138 -251 -559 -251 -564 0 -3 -13 -34 -30 -69 -16 -36 -30 -71 -30
-79 0 -8 -4 -18 -9 -24 -33 -35 -506 -1292 -546 -1454 -1 -3 -5 -12 -8 -20
-19 -46 -212 -672 -222 -723 -2 -9 -6 -21 -9 -25 -15 -25 -215 -803 -242 -942
-3 -14 -12 -54 -20 -90 -8 -36 -17 -81 -20 -100 -3 -19 -9 -53 -14 -75 -5 -22
-12 -56 -15 -75 -3 -19 -10 -53 -15 -75 -5 -22 -12 -62 -16 -90 -3 -27 -7 -57
-9 -65 -1 -8 -6 -35 -10 -60 -4 -25 -9 -52 -10 -60 -2 -8 -11 -72 -21 -142
-27 -200 -1 -304 102 -405 81 -79 183 -101 315 -67 87 23 140 65 206 164 43
64 118 222 147 310 19 57 95 346 141 530 16 66 58 216 66 238 6 15 10 29 10
32 -1 7 18 77 40 150 28 95 138 475 158 550 10 36 37 131 61 213 l43 147 61 1
c34 0 78 2 98 4 20 1 90 6 155 9 65 4 136 9 158 11 22 3 76 7 120 11 145 11
371 32 415 39 14 2 52 6 85 10 51 5 146 17 320 40 76 9 110 14 150 20 22 4 51
8 65 10 69 9 138 20 260 40 126 20 137 22 263 46 103 19 127 19 127 -1 0 -5
11 -33 24 -62 13 -29 42 -98 66 -153 23 -55 48 -113 55 -130 113 -255 143
-321 172 -385 19 -41 51 -111 71 -155 80 -174 365 -741 399 -794 98 -149 222
-273 353 -352 47 -28 64 -33 122 -33 61 -1 69 2 98 29 69 66 90 150 85 350 -2
77 -6 151 -9 165 -9 42 -15 74 -21 110 -19 122 -40 188 -96 306 -34 71 -79
170 -101 219 -22 50 -51 115 -65 145 -46 103 -55 125 -130 300 -155 362 -274
661 -268 670 3 6 13 10 21 10 8 0 14 5 14 10 0 6 6 10 13 10 25 0 191 121 245
178 72 78 96 131 96 212 0 142 -51 238 -156 291 -51 26 -206 47 -318 43 -89
-3 -90 -3 -159 -23 -24 -7 -47 -9 -52 -4 -10 10 -26 52 -209 568 -73 204 -136
379 -141 390 -21 50 -244 718 -298 895 -18 58 -43 139 -56 180 -27 86 -115
385 -120 409 -14 67 -56 170 -123 302 -125 248 -207 358 -280 379 -50 14 -128
12 -182 -5z m-81 -1185 c18 -63 41 -144 51 -180 22 -71 81 -269 110 -365 116
-384 337 -1022 493 -1425 58 -149 63 -166 47 -172 -20 -7 -169 -35 -395 -72
-144 -24 -412 -62 -506 -71 -80 -8 -164 -17 -194 -21 -16 -2 -68 -6 -115 -10
-47 -3 -101 -7 -120 -9 -19 -2 -105 -7 -190 -10 -85 -4 -158 -9 -162 -12 -16
-9 -5 30 71 252 247 719 606 1635 831 2120 11 22 24 53 30 69 6 16 12 27 14
25 2 -2 18 -56 35 -119z"/>
</g>
</svg>
